<svg width="29" height="31" viewBox="0 0 29 31" fill="none" xmlns="http://www.w3.org/2000/svg">
<path d="M29 15.4023C28.8313 15.8339 28.7247 16.3087 28.4803 16.6872C27.949 17.5107 27.1359 17.8118 26.2039 17.8111C23.4195 17.8091 20.6344 17.8104 17.8499 17.8111C17.2288 17.8111 17.0911 17.9565 17.0911 18.6111C17.0911 21.5122 17.0911 24.4125 17.0911 27.3136C17.0911 28.0759 16.9153 28.7796 16.3911 29.3392C15.6136 30.1695 14.6848 30.4052 13.6215 30.045C12.7328 29.7439 12.0206 28.8133 11.9423 27.8368C11.9178 27.5338 11.9029 27.2287 11.9029 26.925C11.8997 24.1425 11.9016 21.3593 11.901 18.5767C11.901 17.968 11.751 17.8118 11.1654 17.8118C8.3713 17.8118 5.57716 17.8118 2.78301 17.8118C2.05071 17.8118 1.37528 17.6299 0.837519 17.0851C0.0386389 16.2764 -0.188874 15.3094 0.155627 14.2009C0.443896 13.2736 1.33908 12.5288 2.2724 12.448C2.56326 12.4231 2.85605 12.4069 3.14755 12.4063C5.81889 12.4029 8.49023 12.4049 11.1616 12.4043C11.7497 12.4043 11.9003 12.2494 11.9003 11.6419C11.9003 8.73146 11.9003 5.82097 11.901 2.91049C11.901 2.21553 12.0464 1.5677 12.4833 1.01618C12.9093 0.477449 13.4457 0.14613 14.1102 0.0430984C14.1457 0.0377111 14.1781 0.0148151 14.2123 0C14.401 0 14.5898 0 14.7791 0C14.8134 0.0148151 14.8457 0.0377111 14.8813 0.0430984C15.5457 0.14613 16.0822 0.477449 16.5081 1.01551C16.9444 1.56703 17.0905 2.21418 17.0905 2.90914C17.0918 5.80885 17.0905 8.70856 17.0911 11.609C17.0911 12.2581 17.2314 12.4049 17.8538 12.4049C20.6376 12.4049 23.4214 12.4063 26.2052 12.4049C27.1366 12.4049 27.949 12.7059 28.4803 13.5295C28.7247 13.908 28.8307 14.3827 28.9994 14.8144V15.4043L29 15.4023Z" fill="white"/>
</svg>
