<svg width="28" height="39" viewBox="0 0 28 39" fill="none" xmlns="http://www.w3.org/2000/svg">
<g clip-path="url(#clip0_237_49)">
<path d="M11.7321 37.081C12.825 35.7736 13.9385 34.5151 14.9699 33.1934C17.323 30.1812 19.3369 26.9607 20.7201 23.3759C21.5764 21.1585 22.1221 18.8733 22.1615 16.484C22.1663 16.1812 22.2215 15.9099 22.5479 15.7869C22.9659 15.6307 23.3649 15.9304 23.3239 16.4414C23.2355 17.569 23.1772 18.7077 22.9659 19.8148C22.2246 23.6929 20.5071 27.1673 18.3844 30.4571C16.5943 33.2297 14.5378 35.7925 12.2289 38.1519C11.811 38.5777 11.5302 38.584 11.1233 38.1613C7.4676 34.3715 4.35597 30.1985 2.17482 25.3804C0.979375 22.7403 0.209746 19.9899 0.0236468 17.0738C-0.361168 11.0729 4.02477 5.63502 9.97836 4.80546C10.4909 4.73449 11.0098 4.69822 11.5271 4.67298C11.9624 4.65248 12.2321 4.87801 12.2494 5.22655C12.2667 5.57193 12.016 5.82112 11.5776 5.83216C9.9137 5.87159 8.31767 6.20751 6.85884 7.01814C3.09428 9.11255 1.16547 12.3204 1.20017 16.6432C1.2254 19.8479 2.23002 22.8145 3.61157 25.6596C5.64446 29.8452 8.39021 33.5372 11.5539 36.9296C11.5807 36.9596 11.6154 36.9832 11.7321 37.081Z" fill="white"/>
<path d="M14.0016 9.75916C14.0016 7.54806 14.0016 5.33537 14.0016 3.12426C14.0047 1.24908 15.227 0.00947199 17.0959 0.00474066C19.6902 -0.00156778 22.2845 9.32923e-06 24.8789 0.00474066C26.7541 0.00789488 27.9953 1.23646 27.9968 3.10376C28.0031 7.62218 27.9968 12.1406 28 16.6606C28 16.9871 27.9779 17.3009 27.6183 17.4444C27.2524 17.5911 27.0316 17.364 26.8124 17.1227C25.0886 15.2396 23.3633 13.3581 21.6364 11.4766C21.1317 10.9262 20.8667 10.9231 20.3699 11.464C18.6257 13.366 16.8877 15.2727 15.1292 17.1605C14.9746 17.3261 14.686 17.4712 14.4731 17.4539C14.0741 17.4239 13.9984 17.0833 14 16.7205C14.0063 14.4684 14.0031 12.2147 14.0031 9.96261C14.0031 9.89479 14.0031 9.8254 14.0031 9.75759L14.0016 9.75916ZM26.7257 15.2995C26.7572 15.2869 26.7904 15.2743 26.8219 15.2617V14.858C26.8219 10.9657 26.8219 7.07334 26.8219 3.18262C26.8219 1.84207 26.1532 1.18126 24.7985 1.17969C22.2577 1.17653 19.717 1.17653 17.1763 1.17969C15.8421 1.17969 15.1607 1.86573 15.1607 3.19839C15.1607 7.10331 15.1607 11.0098 15.1607 14.9147C15.1607 15.0441 15.1607 15.1734 15.1607 15.3027C15.2002 15.3248 15.2396 15.3453 15.279 15.3674C15.3563 15.2585 15.4225 15.1418 15.5109 15.0441C16.8656 13.5616 18.2203 12.0807 19.5798 10.6029C20.4583 9.64877 21.5417 9.65192 22.4155 10.6029C23.1173 11.3678 23.8175 12.1343 24.5193 12.8992C25.2542 13.7004 25.9908 14.5015 26.7273 15.3011L26.7257 15.2995Z" fill="white"/>
<path d="M11.6501 23.327C7.95021 23.316 4.95055 20.463 4.68086 16.6969C4.43168 13.2241 7.05599 9.96892 10.5493 9.42324C10.8584 9.37435 11.1738 9.34911 11.4861 9.33807C11.9561 9.32072 12.2305 9.5289 12.251 9.89006C12.2699 10.2465 12.0144 10.4752 11.5413 10.5004C9.4942 10.6092 7.87451 11.4861 6.75476 13.213C5.46626 15.1986 5.55143 17.7803 6.93455 19.7218C8.2956 21.6316 10.7228 22.5448 13.0048 22.0038C15.3106 21.4566 17.088 19.5388 17.4318 17.2173C17.4712 16.9476 17.4807 16.6732 17.5028 16.4019C17.5375 15.9887 17.7535 15.7459 18.0847 15.749C18.4364 15.7522 18.6793 16.0219 18.6635 16.4477C18.5752 18.744 17.6258 20.6002 15.7806 21.977C14.5599 22.8886 13.1657 23.3034 11.6501 23.3286V23.327Z" fill="white"/>
</g>
<defs>
<clipPath id="clip0_237_49">
<rect width="28" height="38.4752" fill="white"/>
</clipPath>
</defs>
</svg>
