<svg width="28" height="28" viewBox="0 0 28 28" fill="none" xmlns="http://www.w3.org/2000/svg">
<g clip-path="url(#clip0_237_68)">
<path d="M28 15.58C28 15.58 27.96 15.66 27.95 15.7C27.73 16.5 27.19 16.93 26.37 17.04C25.75 17.12 25.12 17.2 24.5 17.27C24.33 17.29 24.25 17.35 24.19 17.51C24.04 17.92 23.87 18.32 23.69 18.72C23.62 18.87 23.65 18.97 23.74 19.08C24.14 19.58 24.53 20.08 24.92 20.59C25.53 21.39 25.48 22.3 24.77 23.01C24.19 23.59 23.61 24.17 23.03 24.75C22.31 25.46 21.41 25.51 20.61 24.9C20.1 24.51 19.6 24.12 19.1 23.72C18.98 23.63 18.89 23.6 18.74 23.67C18.35 23.85 17.96 24.02 17.56 24.16C17.38 24.23 17.31 24.32 17.29 24.51C17.21 25.19 17.14 25.87 17.02 26.54C16.87 27.39 16.17 27.97 15.31 27.98C14.47 27.98 13.63 27.98 12.79 27.98C11.77 27.98 11.07 27.35 10.94 26.34C10.86 25.72 10.78 25.09 10.71 24.47C10.69 24.32 10.63 24.24 10.48 24.18C10.07 24.03 9.67 23.86 9.27 23.68C9.13 23.61 9.03 23.61 8.91 23.72C8.41 24.12 7.89 24.52 7.38 24.91C6.58 25.52 5.68 25.45 4.96 24.74C4.38 24.17 3.81 23.6 3.24 23.02C2.53 22.3 2.47 21.4 3.08 20.6C3.47 20.09 3.86 19.59 4.26 19.09C4.36 18.96 4.38 18.86 4.31 18.7C4.13 18.31 3.97 17.92 3.82 17.52C3.76 17.35 3.66 17.28 3.49 17.27C2.86 17.2 2.22 17.12 1.59 17.04C0.62 16.92 0 16.21 0 15.23C0 14.41 0 13.59 0 12.77C0 11.77 0.63 11.07 1.63 10.94C2.25 10.86 2.88 10.78 3.5 10.71C3.67 10.69 3.75 10.63 3.81 10.46C3.96 10.06 4.12 9.66 4.3 9.28C4.37 9.13 4.37 9.03 4.26 8.89C3.86 8.39 3.47 7.89 3.08 7.38C2.47 6.58 2.53 5.68 3.23 4.96C3.81 4.38 4.39 3.8 4.97 3.22C5.68 2.52 6.58 2.46 7.37 3.06C7.88 3.45 8.38 3.84 8.88 4.24C9.02 4.35 9.12 4.37 9.29 4.29C9.67 4.11 10.06 3.95 10.45 3.81C10.63 3.74 10.7 3.65 10.72 3.46C10.79 2.84 10.86 2.21 10.95 1.59C11.06 0.78 11.51 0.25 12.32 0.04C12.35 0.04 12.39 0.01 12.42 0C13.48 0 14.53 0 15.59 0C15.62 0.02 15.65 0.04 15.69 0.04C16.47 0.24 16.92 0.75 17.04 1.54C17.14 2.18 17.21 2.82 17.28 3.46C17.3 3.65 17.37 3.74 17.55 3.81C17.94 3.95 18.33 4.11 18.71 4.29C18.88 4.37 18.98 4.35 19.12 4.24C19.61 3.85 20.11 3.46 20.61 3.08C21.4 2.47 22.32 2.52 23.03 3.23C23.61 3.81 24.19 4.39 24.77 4.97C25.47 5.68 25.53 6.59 24.92 7.39C24.53 7.9 24.12 8.41 23.74 8.93C23.69 9 23.67 9.15 23.7 9.24C23.86 9.67 24.03 10.09 24.23 10.5C24.27 10.59 24.39 10.69 24.49 10.71C24.98 10.79 25.48 10.84 25.98 10.9C26.5 10.96 27.01 11.02 27.43 11.4C27.74 11.68 27.9 12.04 28.01 12.43V15.6L28 15.58ZM13.99 26.83C14.38 26.83 14.77 26.83 15.17 26.83C15.65 26.83 15.85 26.65 15.91 26.17C16.01 25.4 16.11 24.63 16.2 23.87C16.24 23.53 16.4 23.34 16.73 23.22C17.36 22.99 17.98 22.73 18.59 22.45C18.92 22.29 19.18 22.3 19.47 22.53C20.07 23.01 20.68 23.47 21.28 23.94C21.67 24.25 21.91 24.23 22.26 23.89C22.81 23.34 23.36 22.8 23.9 22.25C24.25 21.9 24.27 21.66 23.97 21.27C23.49 20.64 23 20.02 22.51 19.39C22.32 19.15 22.31 18.91 22.44 18.63C22.72 17.99 23 17.35 23.24 16.69C23.36 16.38 23.55 16.22 23.87 16.18C24.65 16.09 25.42 15.99 26.2 15.89C26.65 15.83 26.84 15.62 26.84 15.16C26.84 14.38 26.84 13.59 26.84 12.81C26.84 12.35 26.66 12.15 26.2 12.09C25.42 11.99 24.65 11.89 23.87 11.8C23.54 11.76 23.36 11.6 23.24 11.29C23 10.65 22.74 10.02 22.46 9.4C22.31 9.08 22.32 8.82 22.54 8.55C23.02 7.95 23.48 7.35 23.95 6.74C24.27 6.33 24.25 6.1 23.89 5.74C23.35 5.2 22.81 4.66 22.27 4.12C21.9 3.76 21.68 3.74 21.27 4.05C20.65 4.53 20.03 5.01 19.42 5.49C19.17 5.69 18.93 5.69 18.63 5.56C18 5.28 17.36 5.01 16.72 4.77C16.39 4.65 16.23 4.45 16.19 4.12C16.1 3.35 16 2.58 15.9 1.82C15.84 1.35 15.63 1.17 15.16 1.17C14.39 1.17 13.61 1.17 12.84 1.17C12.36 1.17 12.16 1.35 12.1 1.82C12 2.59 11.9 3.36 11.81 4.12C11.77 4.46 11.61 4.65 11.28 4.77C10.64 5.01 10.01 5.27 9.39 5.55C9.08 5.69 8.83 5.69 8.56 5.47C7.94 4.98 7.31 4.49 6.68 4.01C6.33 3.74 6.08 3.76 5.77 4.07C5.21 4.62 4.66 5.18 4.11 5.73C3.75 6.09 3.74 6.32 4.05 6.73C4.52 7.33 4.98 7.94 5.46 8.54C5.68 8.82 5.69 9.07 5.54 9.4C5.26 10 5 10.61 4.78 11.24C4.65 11.6 4.45 11.77 4.08 11.81C3.32 11.89 2.56 11.99 1.8 12.09C1.34 12.15 1.16 12.36 1.16 12.81C1.16 13.59 1.16 14.38 1.16 15.16C1.16 15.62 1.34 15.82 1.8 15.88C2.57 15.98 3.34 16.08 4.1 16.17C4.45 16.21 4.64 16.37 4.77 16.71C5 17.34 5.26 17.96 5.54 18.57C5.69 18.89 5.68 19.15 5.46 19.42C4.98 20.02 4.52 20.63 4.05 21.23C3.73 21.64 3.75 21.86 4.11 22.23C4.64 22.77 5.18 23.3 5.71 23.83C6.11 24.23 6.32 24.24 6.77 23.89C7.37 23.42 7.98 22.95 8.58 22.48C8.82 22.29 9.06 22.27 9.34 22.4C9.98 22.68 10.62 22.96 11.28 23.21C11.62 23.34 11.77 23.54 11.81 23.89C11.9 24.66 12 25.43 12.1 26.19C12.16 26.63 12.37 26.81 12.81 26.82C13.2 26.82 13.59 26.82 13.99 26.82V26.83Z" fill="white"/>
<path d="M13.82 19.83C10.55 19.68 8.01999 16.98 8.15999 13.81C8.30999 10.57 11.01 8.03001 14.17 8.17001C17.43 8.31001 19.98 11.03 19.83 14.19C19.67 17.44 16.97 19.98 13.82 19.83ZM18.66 14C18.66 11.42 16.59 9.34001 14.01 9.34001C11.43 9.34001 9.34999 11.4 9.33999 13.98C9.32999 16.57 11.41 18.66 14 18.66C16.58 18.66 18.66 16.58 18.66 14Z" fill="white"/>
</g>
<defs>
<clipPath id="clip0_237_68">
<rect width="28" height="28" fill="white"/>
</clipPath>
</defs>
</svg>
