<svg width="27" height="27" viewBox="0 0 27 27" fill="none" xmlns="http://www.w3.org/2000/svg">
<path d="M0 12.9221C0.0391815 12.7967 0.0744449 12.6713 0.117545 12.5459C0.395734 11.778 1.101 11.2569 1.95908 11.253C4.77231 11.2412 7.58555 11.2373 10.3949 11.253C11.5664 11.2608 12.3735 12.1306 12.3735 13.3335C12.3774 15.5747 12.3735 17.8159 12.3735 20.057C12.3735 21.5695 12.3735 23.0779 12.3735 24.5903C12.3735 26.0166 12.017 26.5298 10.7005 27H1.68872C1.06574 26.8511 0.55246 26.5494 0.242926 25.9656C0.141054 25.7736 0.0783631 25.566 0 25.3661C0 21.2168 0 17.0714 0 12.9221ZM1.68872 19.1441C1.68872 21.0405 1.68872 22.9369 1.68872 24.8372C1.68872 25.2525 1.7475 25.3152 2.15498 25.3152C4.84284 25.3152 7.53069 25.3152 10.2225 25.3152C10.626 25.3152 10.6966 25.2447 10.6966 24.8411C10.6966 21.0287 10.6966 17.2164 10.6966 13.404C10.6966 13.0161 10.6182 12.9378 10.2381 12.9378C7.54245 12.9378 4.84284 12.9378 2.14715 12.9378C1.76317 12.9378 1.69264 13.0122 1.69264 13.404C1.69264 15.32 1.69264 17.2321 1.69264 19.148L1.68872 19.1441Z" fill="white"/>
<path d="M0 1.63766C0.0313452 1.5593 0.0626905 1.47702 0.0901175 1.39473C0.348716 0.571922 1.07749 0.00770829 1.93949 0.00770829C4.76839 -0.000128022 7.60122 -0.000128022 10.4301 0.00770829C11.5076 0.00770829 12.3579 0.850111 12.3735 1.95895C12.397 3.65551 12.397 5.35207 12.3735 7.04863C12.3579 8.16922 11.5233 8.99595 10.4027 8.99987C7.58946 9.01554 4.77623 9.01554 1.963 8.99987C0.999129 8.99595 0.286025 8.38864 0.0470178 7.4522C0.0352634 7.4091 0.0156726 7.36992 0 7.33074C0 5.43435 0 3.53405 0 1.63766ZM6.18677 1.6886C4.835 1.6886 3.48324 1.6886 2.12756 1.6886C1.76317 1.6886 1.68872 1.76304 1.68872 2.11176C1.68872 3.70253 1.68872 5.28938 1.68872 6.88015C1.68872 7.23278 1.76709 7.31507 2.11972 7.31507C4.835 7.31507 7.54636 7.31507 10.2616 7.31507C10.6064 7.31507 10.6926 7.22887 10.6926 6.87231C10.6926 5.2933 10.6926 3.71036 10.6926 2.13135C10.6926 1.76304 10.6143 1.6886 10.2421 1.6886C8.89029 1.6886 7.53853 1.6886 6.18285 1.6886H6.18677Z" fill="white"/>
<path d="M16.2955 27C16.1702 26.9608 16.0448 26.9256 15.9233 26.8825C15.1514 26.6004 14.6342 25.899 14.6264 25.0409C14.6107 23.3444 14.6029 21.6478 14.6264 19.9552C14.6421 18.8071 15.508 18.0039 16.6795 18C18.5877 17.9922 20.4919 18 22.4 18C23.2346 18 24.0692 18 24.9037 18C26.1693 18.0039 26.996 18.8346 26.9999 20.1001C26.9999 21.6713 26.9999 23.2464 26.9999 24.8176C26.9999 26.0009 26.4984 26.6591 25.3582 26.9765C25.3426 26.9804 25.3269 26.9922 25.3112 27H16.2916H16.2955ZM20.8171 25.3113C22.1689 25.3113 23.5206 25.3113 24.8763 25.3113C25.2485 25.3113 25.3191 25.2408 25.3191 24.8607C25.3191 23.2817 25.3191 21.6987 25.3191 20.1197C25.3191 19.7671 25.2407 19.6848 24.8881 19.6848C22.1728 19.6848 19.4614 19.6848 16.7461 19.6848C16.3974 19.6848 16.3151 19.771 16.3151 20.1236C16.3151 21.7027 16.3151 23.2856 16.3151 24.8646C16.3151 25.2329 16.3935 25.3113 16.7618 25.3113C18.1136 25.3113 19.4653 25.3113 20.821 25.3113H20.8171Z" fill="white"/>
<path d="M27.0039 7.86765C27.0039 9.79147 27.0039 11.7153 27.0039 13.6391C27.0039 14.9242 26.1811 15.7549 24.8999 15.7549C22.1768 15.7549 19.4536 15.7549 16.7266 15.7549C15.461 15.7549 14.6226 14.9203 14.6226 13.6587C14.6226 9.80322 14.6226 5.94384 14.6226 2.08838C14.6226 0.838485 15.461 0.00391815 16.7031 0C19.4458 0 22.1846 0 24.9273 0C26.1576 0 27 0.838485 27 2.06487C27 3.99652 27 5.92817 27 7.86373L27.0039 7.86765ZM25.3152 7.88724C25.3152 5.98302 25.3152 4.07488 25.3152 2.17066C25.3152 1.75533 25.2564 1.69656 24.8489 1.69656C22.1611 1.69656 19.4732 1.69656 16.7815 1.69656C16.3779 1.69656 16.3074 1.76317 16.3074 2.17066C16.3074 5.98302 16.3074 9.79538 16.3074 13.6077C16.3074 13.9956 16.3857 14.074 16.7658 14.074C19.4615 14.074 22.1611 14.074 24.8568 14.074C25.2408 14.074 25.3113 13.9996 25.3113 13.6077C25.3113 11.7035 25.3113 9.79538 25.3113 7.89116L25.3152 7.88724Z" fill="white"/>
</svg>
