<svg width="28" height="31" viewBox="0 0 28 31" fill="none" xmlns="http://www.w3.org/2000/svg">
<path d="M27.9185 14.0069C27.9228 20.8022 23.0365 26.6366 16.3441 27.7992C14.568 28.1081 12.792 28.078 11.0245 27.7048C10.8615 27.6705 10.6684 27.6748 10.5054 27.722C7.59678 28.5113 4.69245 29.305 1.78813 30.1029C1.70662 30.1244 1.62082 30.1758 1.54789 30.1587C1.36771 30.1158 1.13605 30.0858 1.0288 29.9613C0.934417 29.8541 0.925837 29.5967 0.985897 29.4508C1.14892 29.0433 1.36342 28.6615 1.56076 28.2711C2.28148 26.8254 2.99362 25.371 3.72291 23.9296C3.83445 23.7151 3.80013 23.595 3.64569 23.4234C0.985897 20.4418 -0.236752 16.9498 0.0378082 12.9773C0.475388 6.6538 5.16006 1.43716 11.3891 0.244543C18.7551 -1.16687 26.0481 3.67654 27.5882 11.0253C27.7941 11.9991 27.867 13.003 28 13.994C27.97 13.994 27.9442 14.0026 27.9142 14.0069H27.9185ZM2.32009 28.8888C2.45308 28.8588 2.54317 28.8417 2.63326 28.8202C5.20725 28.1209 7.78554 27.4174 10.3638 26.731C10.5912 26.6709 10.8615 26.6666 11.0931 26.7181C12.9121 27.1214 14.7439 27.16 16.5629 26.7825C23.1394 25.4225 27.5496 19.5152 26.9747 12.8357C26.7173 9.87129 25.5633 7.28443 23.5341 5.12227C18.5577 -0.184456 10.3209 -0.459016 5.0571 4.56028C1.86106 7.60618 0.561188 11.4071 1.11031 15.7872C1.46209 18.6057 2.69332 21.0424 4.671 23.0888C4.9713 23.4019 4.99275 23.5349 4.7997 23.9253C4.36641 24.7919 3.93312 25.6628 3.49983 26.5293C3.11374 27.3015 2.72764 28.0737 2.32009 28.8888Z" fill="white"/>
<path d="M16.4985 17.1986C16.4985 18.713 16.4985 20.2274 16.4985 21.7417C16.4985 23.1789 15.5676 24.1141 14.1261 24.1098C13.7829 24.1098 13.4312 24.1012 13.1051 24.0197C12.1699 23.7795 11.5007 22.9215 11.4964 21.9477C11.4835 18.7859 11.4835 15.6199 11.4964 12.4582C11.5007 11.2999 12.3844 10.3733 13.5513 10.2875C13.9717 10.2574 14.4136 10.266 14.8254 10.3561C15.8078 10.562 16.4899 11.4629 16.4985 12.5054C16.5071 14.0712 16.4985 15.6371 16.4985 17.2029V17.1986ZM15.5204 17.1858C15.5204 16.3707 15.5204 15.5556 15.5204 14.7405C15.5204 13.9897 15.529 13.2347 15.5161 12.4839C15.5032 11.7589 15.0185 11.2742 14.2977 11.2398C14.0575 11.227 13.8173 11.227 13.577 11.2484C12.9721 11.3042 12.4831 11.7718 12.4831 12.381C12.4702 15.5856 12.4702 18.7945 12.4831 21.9991C12.4831 22.5955 12.9593 23.0502 13.5556 23.1188C13.7315 23.1403 13.9116 23.1403 14.0875 23.1403C15.0528 23.1403 15.5247 22.6598 15.5247 21.6946C15.5247 20.1888 15.5247 18.6873 15.5247 17.1815L15.5204 17.1858Z" fill="white"/>
<path d="M13.9889 9.32647C12.9378 9.37794 12.0927 8.99185 11.6937 7.99657C11.3205 7.06135 11.3205 6.08323 11.9383 5.21665C12.5732 4.32862 13.517 4.22995 14.4951 4.34149C15.692 4.47448 16.4857 5.38825 16.4942 6.59803C16.4942 6.8683 16.5071 7.14286 16.4685 7.40884C16.2969 8.55856 15.4046 9.31788 14.2377 9.32647C14.1562 9.32647 14.0704 9.32647 13.9889 9.32647ZM14.006 5.21236C13.9975 5.24239 13.9889 5.27242 13.9803 5.30245C13.5727 5.26813 13.2081 5.34964 12.8649 5.60275C12.3158 6.0103 12.3072 7.6405 12.8563 8.00515C13.0494 8.13385 13.2682 8.27542 13.4912 8.30974C13.8173 8.36122 14.1562 8.35264 14.4865 8.31832C15.0142 8.26255 15.4475 7.8121 15.499 7.28014C15.5247 6.97984 15.5204 6.67525 15.499 6.37495C15.4775 6.02317 15.3145 5.70571 15.0099 5.54698C14.701 5.38396 14.3407 5.31961 14.0017 5.20807L14.006 5.21236Z" fill="white"/>
</svg>
