<svg width="179" height="152" viewBox="0 0 179 152" fill="none" xmlns="http://www.w3.org/2000/svg">
<path d="M68.1269 67.9868C68.1269 91.6162 87.2945 110.784 110.924 110.784C134.553 110.784 153.721 91.6162 153.721 67.9868C153.721 44.3575 134.553 25.21 110.924 25.21C87.2945 25.21 68.1269 44.3575 68.1269 67.9868Z" fill="url(#paint0_radial_215_45)"/>
<path style="mix-blend-mode:overlay" d="M117.426 63.5851C106.522 54.7416 102.26 41.2763 107.923 33.5132C113.565 25.7501 126.99 26.6105 137.894 35.454C148.799 44.2975 153.04 57.7628 147.398 65.5258C141.736 73.2889 128.331 72.4286 117.426 63.5851Z" fill="url(#paint1_radial_215_45)"/>
<path style="mix-blend-mode:overlay" opacity="0.4" d="M73.0889 77.4506C74.5294 72.7287 81.8723 74.6895 89.4753 81.8323C97.0983 88.9952 102.08 98.619 100.66 103.361C99.2192 108.083 91.8763 106.142 84.2533 98.9791C76.6503 91.8163 71.6483 82.1925 73.0689 77.4506H73.0889Z" fill="url(#paint2_radial_215_45)"/>
<path d="M116.106 12.545C116.106 15.4061 113.785 17.727 110.924 17.727C108.063 17.727 105.742 15.4061 105.742 12.545V5.18205C105.742 2.32092 108.063 0 110.924 0C113.785 0 116.106 2.32092 116.106 5.18205V12.545Z" fill="url(#paint3_radial_215_45)"/>
<path d="M75.3697 25.1299C77.3905 27.1507 77.3905 30.452 75.3697 32.4728C73.349 34.4936 70.0677 34.4936 68.0269 32.4728L62.8248 27.2708C60.804 25.25 60.804 21.9487 62.8248 19.9279C64.8456 17.9071 68.1469 17.9071 70.1677 19.9279L75.3697 25.1299Z" fill="url(#paint4_radial_215_45)"/>
<path d="M55.4619 62.8048C58.323 62.8048 60.6439 65.1258 60.6439 67.9869C60.6439 70.848 58.323 73.1689 55.4619 73.1689H48.099C45.2379 73.1689 42.9169 70.848 42.8969 67.9869C42.8969 65.1258 45.2179 62.8048 48.099 62.8048H55.4619Z" fill="url(#paint5_radial_215_45)"/>
<path d="M68.0469 103.521C70.0677 101.5 73.369 101.5 75.3898 103.521C77.4106 105.542 77.4106 108.823 75.3898 110.864L70.1877 116.066C68.1669 118.087 64.8656 118.087 62.8448 116.066C60.824 114.045 60.824 110.744 62.8448 108.723L68.0469 103.521Z" fill="url(#paint6_radial_215_45)"/>
<path d="M105.722 123.429C105.722 120.568 108.043 118.247 110.904 118.247C113.765 118.247 116.086 120.568 116.086 123.429V130.792C116.086 133.653 113.765 135.974 110.904 135.974C108.043 135.974 105.722 133.653 105.722 130.792V123.429Z" fill="url(#paint7_radial_215_45)"/>
<path d="M146.458 110.864C144.437 108.843 144.437 105.542 146.458 103.521C148.479 101.5 151.76 101.5 153.801 103.521L159.003 108.723C161.024 110.744 161.024 114.045 159.003 116.066C156.982 118.087 153.681 118.087 151.66 116.066L146.458 110.864Z" fill="url(#paint8_radial_215_45)"/>
<path d="M166.346 73.1889C163.485 73.1889 161.164 70.868 161.164 68.0068C161.164 65.1457 163.485 62.8248 166.346 62.8248H173.709C176.57 62.8248 178.891 65.1457 178.911 68.0068C178.911 70.868 176.59 73.1889 173.709 73.1889H166.346Z" fill="url(#paint9_radial_215_45)"/>
<path d="M153.781 32.4528C151.76 34.4736 148.459 34.4736 146.438 32.4528C144.417 30.432 144.417 27.1507 146.438 25.1099L151.64 19.9079C153.661 17.8871 156.962 17.8871 158.983 19.9079C161.004 21.9287 161.004 25.23 158.983 27.2508L153.781 32.4528Z" fill="url(#paint10_radial_215_45)"/>
<path d="M56.1822 39.6356C82.6526 39.6356 104.821 57.9428 110.784 82.5726C115.586 80.2517 120.968 78.8911 126.67 78.8911C146.858 78.8911 163.224 95.2576 163.224 115.446C163.224 135.634 146.858 152 126.67 152H56.1822C25.1499 152 0 126.85 0 95.8178C0 64.7855 25.1499 39.6356 56.1822 39.6356Z" fill="url(#paint11_radial_215_45)"/>
<path d="M56.1822 39.6356C82.6526 39.6356 104.821 57.9428 110.784 82.5726C115.586 80.2517 120.968 78.8911 126.67 78.8911C146.858 78.8911 163.224 95.2576 163.224 115.446C163.224 135.634 146.858 152 126.67 152H56.1822C25.1499 152 0 126.85 0 95.8178C0 64.7855 25.1499 39.6356 56.1822 39.6356Z" fill="url(#paint12_radial_215_45)"/>
<path style="mix-blend-mode:overlay" d="M48.9993 93.3368C63.6251 81.4721 69.3474 63.385 61.7644 52.9609C54.1814 42.5368 36.1743 43.6972 21.5285 55.5619C6.90273 67.4266 1.20048 85.5137 8.78347 95.9379C16.3665 106.362 34.3936 105.202 49.0193 93.3368H48.9993Z" fill="url(#paint13_radial_215_45)"/>
<path style="mix-blend-mode:overlay" opacity="0.4" d="M122.628 108.763C130.672 102.24 133.813 92.2964 129.631 86.5742C125.47 80.8319 115.566 81.4922 107.522 87.9947C99.4793 94.5173 96.358 104.461 100.52 110.184C104.701 115.926 114.605 115.266 122.628 108.763Z" fill="url(#paint14_radial_215_45)"/>
<path style="mix-blend-mode:overlay" opacity="0.2" d="M140.455 122.968C149.299 114.025 158.423 110.524 160.864 115.145C163.284 119.767 158.082 130.772 149.239 139.715C140.395 148.659 131.252 152.16 128.831 147.538C126.41 142.916 131.612 131.912 140.455 122.968Z" fill="url(#paint15_radial_215_45)"/>
<defs>
<radialGradient id="paint0_radial_215_45" cx="0" cy="0" r="1" gradientUnits="userSpaceOnUse" gradientTransform="translate(120.688 41.1563) rotate(180) scale(81.2321 81.2321)">
<stop stop-color="#FFF8C7"/>
<stop offset="0.16" stop-color="#FFE436"/>
<stop offset="1" stop-color="#FE761C"/>
</radialGradient>
<radialGradient id="paint1_radial_215_45" cx="0" cy="0" r="1" gradientUnits="userSpaceOnUse" gradientTransform="translate(342.906 -252.297) rotate(126.03) scale(17.4243 25.3444)">
<stop stop-color="white"/>
<stop offset="0.1" stop-color="white" stop-opacity="0.85"/>
<stop offset="0.29" stop-color="white" stop-opacity="0.59"/>
<stop offset="0.47" stop-color="white" stop-opacity="0.38"/>
<stop offset="0.63" stop-color="white" stop-opacity="0.22"/>
<stop offset="0.78" stop-color="white" stop-opacity="0.1"/>
<stop offset="0.91" stop-color="white" stop-opacity="0.03"/>
<stop offset="1" stop-color="white" stop-opacity="0"/>
</radialGradient>
<radialGradient id="paint2_radial_215_45" cx="0" cy="0" r="1" gradientUnits="userSpaceOnUse" gradientTransform="translate(1767.32 1695.39) rotate(-136.79) scale(18.9411 7.99996)">
<stop stop-color="white"/>
<stop offset="0.1" stop-color="white" stop-opacity="0.85"/>
<stop offset="0.29" stop-color="white" stop-opacity="0.59"/>
<stop offset="0.47" stop-color="white" stop-opacity="0.38"/>
<stop offset="0.63" stop-color="white" stop-opacity="0.22"/>
<stop offset="0.78" stop-color="white" stop-opacity="0.1"/>
<stop offset="0.91" stop-color="white" stop-opacity="0.03"/>
<stop offset="1" stop-color="white" stop-opacity="0"/>
</radialGradient>
<radialGradient id="paint3_radial_215_45" cx="0" cy="0" r="1" gradientUnits="userSpaceOnUse" gradientTransform="translate(111.864 2.62103) scale(14.1256)">
<stop stop-color="#FFF8C7"/>
<stop offset="0.16" stop-color="#FFE436"/>
<stop offset="1" stop-color="#FE761C"/>
</radialGradient>
<radialGradient id="paint4_radial_215_45" cx="0" cy="0" r="1" gradientUnits="userSpaceOnUse" gradientTransform="translate(65.3546 21.0902) rotate(-45) scale(14.1256)">
<stop stop-color="#FFF8C7"/>
<stop offset="0.16" stop-color="#FFE436"/>
<stop offset="1" stop-color="#FE761C"/>
</radialGradient>
<radialGradient id="paint5_radial_215_45" cx="0" cy="0" r="1" gradientUnits="userSpaceOnUse" gradientTransform="translate(45.538 67.0465) rotate(-90) scale(14.1256)">
<stop stop-color="#FFF8C7"/>
<stop offset="0.16" stop-color="#FFE436"/>
<stop offset="1" stop-color="#FE761C"/>
</radialGradient>
<radialGradient id="paint6_radial_215_45" cx="0" cy="0" r="1" gradientUnits="userSpaceOnUse" gradientTransform="translate(64.0031 113.542) rotate(-135) scale(14.1256)">
<stop stop-color="#FFF8C7"/>
<stop offset="0.16" stop-color="#FFE436"/>
<stop offset="1" stop-color="#FE761C"/>
</radialGradient>
<radialGradient id="paint7_radial_215_45" cx="0" cy="0" r="1" gradientUnits="userSpaceOnUse" gradientTransform="translate(109.983 133.373) rotate(180) scale(14.1256 14.1256)">
<stop stop-color="#FFF8C7"/>
<stop offset="0.16" stop-color="#FFE436"/>
<stop offset="1" stop-color="#FE761C"/>
</radialGradient>
<radialGradient id="paint8_radial_215_45" cx="0" cy="0" r="1" gradientUnits="userSpaceOnUse" gradientTransform="translate(156.455 114.865) rotate(135) scale(14.1256)">
<stop stop-color="#FFF8C7"/>
<stop offset="0.16" stop-color="#FFE436"/>
<stop offset="1" stop-color="#FE761C"/>
</radialGradient>
<radialGradient id="paint9_radial_215_45" cx="0" cy="0" r="1" gradientUnits="userSpaceOnUse" gradientTransform="translate(176.29 68.9272) rotate(90) scale(14.1256 14.1256)">
<stop stop-color="#FFF8C7"/>
<stop offset="0.16" stop-color="#FFE436"/>
<stop offset="1" stop-color="#FE761C"/>
</radialGradient>
<radialGradient id="paint10_radial_215_45" cx="0" cy="0" r="1" gradientUnits="userSpaceOnUse" gradientTransform="translate(157.806 22.4417) rotate(45) scale(14.1256)">
<stop stop-color="#FFF8C7"/>
<stop offset="0.16" stop-color="#FFE436"/>
<stop offset="1" stop-color="#FE761C"/>
</radialGradient>
<radialGradient id="paint11_radial_215_45" cx="0" cy="0" r="1" gradientUnits="userSpaceOnUse" gradientTransform="translate(35.1339 55.0617) rotate(180) scale(139.515 139.515)">
<stop stop-color="white"/>
<stop offset="0.2" stop-color="#D9F7FF"/>
<stop offset="1" stop-color="#89C0F5"/>
</radialGradient>
<radialGradient id="paint12_radial_215_45" cx="0" cy="0" r="1" gradientUnits="userSpaceOnUse" gradientTransform="translate(99.8794 67.7467) scale(79.7115 79.7115)">
<stop stop-color="#FFE436"/>
<stop offset="0.08" stop-color="#FECE30" stop-opacity="0.81"/>
<stop offset="0.18" stop-color="#FEB72B" stop-opacity="0.6"/>
<stop offset="0.28" stop-color="#FEA326" stop-opacity="0.41"/>
<stop offset="0.38" stop-color="#FE9322" stop-opacity="0.26"/>
<stop offset="0.48" stop-color="#FE861F" stop-opacity="0.15"/>
<stop offset="0.58" stop-color="#FE7D1D" stop-opacity="0.07"/>
<stop offset="0.68" stop-color="#FE771C" stop-opacity="0.02"/>
<stop offset="0.77" stop-color="#FE761C" stop-opacity="0"/>
</radialGradient>
<radialGradient id="paint13_radial_215_45" cx="0" cy="0" r="1" gradientUnits="userSpaceOnUse" gradientTransform="translate(-232.704 -301.446) rotate(53.97) scale(23.404 34.0422)">
<stop stop-color="white"/>
<stop offset="0.1" stop-color="white" stop-opacity="0.85"/>
<stop offset="0.29" stop-color="white" stop-opacity="0.59"/>
<stop offset="0.47" stop-color="white" stop-opacity="0.38"/>
<stop offset="0.63" stop-color="white" stop-opacity="0.22"/>
<stop offset="0.78" stop-color="white" stop-opacity="0.1"/>
<stop offset="0.91" stop-color="white" stop-opacity="0.03"/>
<stop offset="1" stop-color="white" stop-opacity="0"/>
</radialGradient>
<radialGradient id="paint14_radial_215_45" cx="0" cy="0" r="1" gradientUnits="userSpaceOnUse" gradientTransform="translate(-151.254 -275.213) rotate(53.97) scale(12.8751 18.7274)">
<stop stop-color="white"/>
<stop offset="0.1" stop-color="white" stop-opacity="0.85"/>
<stop offset="0.29" stop-color="white" stop-opacity="0.59"/>
<stop offset="0.47" stop-color="white" stop-opacity="0.38"/>
<stop offset="0.63" stop-color="white" stop-opacity="0.22"/>
<stop offset="0.78" stop-color="white" stop-opacity="0.1"/>
<stop offset="0.91" stop-color="white" stop-opacity="0.03"/>
<stop offset="1" stop-color="white" stop-opacity="0"/>
</radialGradient>
<radialGradient id="paint15_radial_215_45" cx="0" cy="0" r="1" gradientUnits="userSpaceOnUse" gradientTransform="translate(155.84 138.431) rotate(-146.99) scale(7.89912 21.6285)">
<stop stop-color="white"/>
<stop offset="0.1" stop-color="white" stop-opacity="0.85"/>
<stop offset="0.29" stop-color="white" stop-opacity="0.59"/>
<stop offset="0.47" stop-color="white" stop-opacity="0.38"/>
<stop offset="0.63" stop-color="white" stop-opacity="0.22"/>
<stop offset="0.78" stop-color="white" stop-opacity="0.1"/>
<stop offset="0.91" stop-color="white" stop-opacity="0.03"/>
<stop offset="1" stop-color="white" stop-opacity="0"/>
</radialGradient>
</defs>
</svg>
