<svg width="51" height="58" viewBox="0 0 51 58" fill="none" xmlns="http://www.w3.org/2000/svg">
<path d="M23.0591 57.9006C21.9631 57.72 20.8543 57.6169 19.7971 57.3333C11.8548 55.2574 6.54282 50.4096 4.53148 42.3642C3.24215 37.2069 4.23493 32.3204 7.08434 27.8206C8.07712 26.2476 9.14726 24.7262 10.1658 23.179C3.97707 21.7995 0.212242 18.1765 0.00595039 11.7041C-0.135875 6.83041 2.26227 3.11716 6.69754 1.15738C12.2932 -1.31812 17.0637 0.293538 20.9833 4.88353C21.2282 4.29044 21.4732 3.71025 21.7311 3.11716C22.2726 1.84073 23.304 1.1316 24.6192 1.15738C25.9858 1.18317 26.8884 1.87941 27.4557 3.11716C28.4613 5.28322 29.4928 7.4364 30.5243 9.58957C30.6016 9.75718 30.7048 9.9119 30.8982 10.2342C32.1875 7.92634 33.4252 5.73449 34.6243 3.52974C34.9853 2.85929 35.269 2.12438 35.5784 1.42814C35.9652 0.538509 36.6486 0.0614593 37.6026 0.0743525C38.5439 0.0743525 39.1627 0.590082 39.5753 1.42814C40.5294 3.36213 41.5222 5.28322 42.4892 7.21721C42.6052 7.46218 42.7471 7.79741 42.6568 8.0037C42.5408 8.27446 42.2442 8.53232 41.9735 8.63547C41.5738 8.77729 41.2514 8.49364 41.0709 8.13263C40.0782 6.21154 39.1112 4.27755 38.1184 2.36935C38.0023 2.13727 37.7703 1.96966 37.6026 1.77626C37.4221 1.95677 37.1514 2.11149 37.0611 2.33067C35.7202 5.5153 33.9668 8.46786 32.0586 11.343C31.8265 11.6912 31.8136 11.9361 32.0328 12.2971C35.0111 16.8871 37.9894 21.4771 40.9549 26.0929C41.909 27.5756 42.8115 29.0842 43.7656 30.6313C45.6738 29.342 47.105 27.5756 47.827 25.2935C48.7553 22.3926 48.433 19.5947 46.8213 17.0032C45.777 15.3271 44.6424 13.7025 43.5464 12.0651C43.4691 11.9361 43.3788 11.8201 43.3015 11.6912C43.0436 11.227 43.1339 10.75 43.5335 10.4921C43.9332 10.2342 44.4103 10.3245 44.7197 10.7629C45.4546 11.833 46.1767 12.9031 46.8858 13.9991C47.5949 15.1079 48.3943 16.178 48.9358 17.3642C51.3597 22.6246 49.6192 28.6845 44.7842 31.9593C44.3716 32.243 44.2942 32.4751 44.4232 32.9521C44.6939 33.9836 44.8744 35.0408 45.0549 36.0981C45.1581 36.6525 44.8358 37.0651 44.3587 37.1295C43.8559 37.194 43.4691 36.9104 43.4046 36.3302C43.0178 32.9134 41.5609 29.9609 39.6656 27.1244C36.5067 22.4055 33.4381 17.6221 30.4211 12.8129C28.6676 10.0022 27.2365 7.01092 25.9729 3.94233C25.8569 3.67157 25.7151 3.38792 25.4959 3.18162C24.8383 2.56275 23.7682 2.79483 23.3685 3.64578C22.9301 4.58699 22.5176 5.52819 22.1437 6.49519C22.0663 6.70148 22.1179 7.01092 22.2081 7.2301C23.188 9.69271 23.3298 12.194 22.6207 14.7598C22.582 14.9016 22.5433 15.0563 22.4918 15.1852C22.2984 15.6752 21.8858 15.9073 21.4216 15.7654C20.9704 15.6365 20.7641 15.1981 20.8801 14.6824C21.0219 14.0248 21.2024 13.3673 21.2927 12.6968C21.9116 7.48797 18.1854 2.58854 13.0797 1.86651C7.62586 1.09292 2.72642 4.59988 1.79811 9.92479C1.0503 14.2569 3.26794 18.5633 7.25195 20.4844C11.1844 22.3797 15.9549 21.4127 18.8559 18.1507C18.9203 18.0862 18.9719 18.0089 19.0364 17.9444C19.449 17.5189 19.9002 17.4673 20.287 17.7897C20.6609 18.112 20.6867 18.6019 20.3128 19.0403C19.3845 20.1491 18.2757 21.0517 17.0121 21.735C15.6455 22.4828 14.1756 22.9083 12.6155 23.0888C12.435 23.1146 12.1901 23.1919 12.0998 23.3338C10.7073 25.4096 9.21173 27.4338 7.97398 29.6128C3.82235 36.8846 5.48558 45.9743 11.8677 51.4926C19.8229 58.3518 31.8265 57.6556 38.892 49.881C41.3288 47.2121 42.7857 44.0532 43.2757 40.456C43.2886 40.34 43.3144 40.2368 43.3401 40.1208C43.4691 39.6179 43.8301 39.3343 44.2556 39.3859C44.7197 39.4374 45.0807 39.8371 44.9776 40.3528C44.7584 41.5519 44.6037 42.7897 44.204 43.9243C41.6382 51.2734 36.4294 55.67 28.9126 57.4235C27.9843 57.6427 27.0302 57.7329 26.089 57.8877H23.0333L23.0591 57.9006Z" fill="#EEEBFE"/>
<path d="M24.7224 53.6974C22.6079 53.7102 20.3129 53.3235 18.1081 52.408C17.4635 52.1373 17.2185 51.6989 17.4377 51.1961C17.644 50.7319 18.1081 50.603 18.7399 50.8351C23.7554 52.7433 28.6032 52.3951 33.0772 49.391C37.448 46.4513 39.5496 42.261 39.2015 36.9619C39.0339 34.4348 38.0024 32.2043 36.5841 30.1414C35.8234 29.0326 36.12 28.9423 34.8049 29.7417C32.3938 31.1986 29.957 31.2631 27.5589 29.7675C26.2567 28.9552 24.9029 28.6071 23.4201 28.981C22.8271 29.1228 22.2598 29.4194 21.7311 29.7417C19.2427 31.2244 16.793 31.2115 14.3304 29.7159C13.0798 28.9552 13.3763 29.0841 12.6414 30.1156C11.2876 32.0367 10.3206 34.1125 10.0499 36.472C9.53412 41.0233 11.0168 44.8397 14.2917 47.9856C14.5754 48.2564 14.8848 48.5014 15.1943 48.7592C15.6713 49.1718 15.7745 49.6875 15.4392 50.0872C15.1169 50.4611 14.6012 50.474 14.137 50.0872C10.3335 46.98 8.27058 43.0089 8.25769 38.045C8.25769 35.1698 9.08286 32.5266 10.63 30.1027C10.9524 29.5999 11.2876 29.097 11.6228 28.5942C12.3706 27.4854 13.3634 27.2404 14.5496 27.8851C14.8848 28.0656 15.2071 28.259 15.5295 28.4395C17.2314 29.4065 18.9591 29.4452 20.6094 28.4008C22.2855 27.3436 24.0519 26.8407 25.9859 27.3049C26.9142 27.537 27.8038 28.0011 28.6548 28.4782C29.8797 29.1615 31.1561 29.2775 32.4712 28.9552C32.8967 28.8521 33.3093 28.62 33.709 28.4137C34.1215 28.2074 34.5212 27.9366 34.9467 27.7304C35.8106 27.3178 36.7647 27.4854 37.332 28.2461C39.4593 31.0697 40.9292 34.1641 40.9421 37.7871C40.9678 43.5762 38.3892 47.9728 33.6058 51.0929C31.0401 52.769 28.1649 53.5813 24.7481 53.6845L24.7224 53.6974Z" fill="#EEEBFE"/>
<path d="M14.8075 5.90208C14.7559 6.06969 14.6914 6.2502 14.627 6.41781C13.1185 10.015 11.6099 13.6251 10.0885 17.2224C9.81779 17.867 9.36652 18.0991 8.86369 17.8799C8.39953 17.6736 8.2706 17.1837 8.51557 16.5777C10.037 12.9547 11.5584 9.34458 13.0669 5.72158C13.2474 5.30899 13.4924 4.94798 13.9694 5.05113C14.2531 5.11559 14.4851 5.41214 14.7172 5.61843C14.7688 5.67 14.7688 5.79894 14.7946 5.90208H14.8075Z" fill="#EEEBFE"/>
<path d="M20.906 47.1088C20.906 45.523 22.1695 44.2336 23.7554 44.2336C25.3541 44.2336 26.6692 45.5488 26.6563 47.1346C26.6435 48.7076 25.3283 49.9969 23.7554 49.9969C22.1824 49.9969 20.8931 48.7076 20.8931 47.1217L20.906 47.1088ZM22.6079 47.1088C22.6079 47.7535 23.1494 48.295 23.794 48.2821C24.4258 48.2821 24.9802 47.7148 24.9673 47.083C24.9673 46.4513 24.4129 45.9098 23.7683 45.9098C23.1236 45.9098 22.595 46.4384 22.6079 47.0959V47.1088Z" fill="#EEEBFE"/>
<path d="M32.6259 33.932C34.2247 33.932 35.5011 35.1827 35.514 36.7685C35.514 38.3802 34.2247 39.6953 32.6259 39.6824C31.0658 39.6824 29.7507 38.3544 29.7507 36.7943C29.7507 35.2213 31.0401 33.932 32.6259 33.932ZM33.8121 36.7943C33.8121 36.1368 33.2964 35.621 32.6388 35.6339C31.9942 35.6339 31.4526 36.1754 31.4526 36.8072C31.4526 37.439 32.007 37.9934 32.6388 37.9934C33.2835 37.9934 33.8121 37.4519 33.7992 36.7943H33.8121Z" fill="#EEEBFE"/>
<path d="M14.7945 39.2182C14.7945 37.8129 15.9678 36.6783 17.3603 36.704C18.7398 36.7298 19.8615 37.8773 19.8615 39.244C19.8615 40.6365 18.714 41.784 17.2958 41.7711C15.8775 41.7711 14.7687 40.6365 14.7816 39.2182H14.7945ZM18.1725 39.2311C18.1725 38.767 17.7471 38.3802 17.2829 38.406C16.8187 38.4317 16.4835 38.7928 16.4964 39.2569C16.4964 39.7469 16.8832 40.095 17.3731 40.0692C17.8244 40.0563 18.1854 39.6695 18.1725 39.2311Z" fill="#EEEBFE"/>
<path d="M10.7203 7.73292C10.7203 9.17696 9.61145 10.4147 8.29634 10.4147C6.99412 10.4147 5.91109 9.21564 5.89819 7.7716C5.89819 6.32756 6.95544 5.12848 8.25766 5.11559C9.59855 5.0898 10.7074 6.26309 10.7203 7.73292ZM9.01836 7.75871C9.01836 7.25587 8.69603 6.8175 8.32212 6.8175C7.93533 6.8175 7.61299 7.21719 7.58721 7.73292C7.57432 8.24865 7.92243 8.7257 8.30923 8.71281C8.67024 8.71281 9.00547 8.24865 9.00547 7.75871H9.01836Z" fill="#EEEBFE"/>
<path d="M17.0895 15.4431C17.0895 16.9129 15.9807 18.1249 14.6656 18.0991C13.2989 18.0733 12.2417 16.7969 12.3061 15.2626C12.3706 13.7799 13.5052 12.6969 14.8977 12.8C16.1225 12.8903 17.0895 14.0506 17.0895 15.4431ZM15.3876 15.4431C15.3876 14.9274 15.0911 14.5148 14.7043 14.5019C14.3175 14.5019 14.0081 14.8887 14.0081 15.4173C14.0081 15.9589 14.3304 16.4101 14.7172 16.3972C15.0911 16.3843 15.4005 15.946 15.4005 15.4431H15.3876Z" fill="#EEEBFE"/>
<path d="M25.4315 34.7442C25.4444 35.2084 25.0447 35.621 24.5934 35.621C24.155 35.621 23.7682 35.2471 23.7554 34.7958C23.7425 34.3445 24.0906 33.9578 24.5418 33.932C25.0189 33.9062 25.4186 34.2672 25.4444 34.7313L25.4315 34.7442Z" fill="#EEEBFE"/>
<path d="M15.5165 33.3002C15.5165 33.7773 15.1426 34.1641 14.6784 34.1641C14.2401 34.1641 13.8533 33.7773 13.8533 33.3389C13.8533 32.8748 14.2272 32.4751 14.7042 32.488C15.1555 32.488 15.5165 32.849 15.5294 33.3131L15.5165 33.3002Z" fill="#EEEBFE"/>
<path d="M26.6563 40.4302C26.6563 40.8815 26.218 41.2811 25.7667 41.2554C25.3154 41.2296 24.9673 40.8428 24.9802 40.3915C24.9802 39.9145 25.3799 39.5535 25.8569 39.5792C26.3082 39.605 26.6692 39.9918 26.6563 40.4302Z" fill="#EEEBFE"/>
<path d="M30.3567 44.4658C29.9055 44.4658 29.5316 44.0919 29.5187 43.6535C29.5187 43.1894 29.9184 42.7897 30.3825 42.7897C30.8467 42.7897 31.2206 43.2023 31.2077 43.6793C31.1819 44.1306 30.8209 44.4787 30.3567 44.4658Z" fill="#EEEBFE"/>
<path d="M17.0895 44.2337C17.5665 44.2466 17.9275 44.6463 17.8889 45.1233C17.8631 45.5746 17.4763 45.9356 17.0379 45.9098C16.5737 45.8969 16.1998 45.4843 16.2256 45.0073C16.2514 44.556 16.6253 44.2079 17.0766 44.2208L17.0895 44.2337Z" fill="#EEEBFE"/>
</svg>
