<svg width="50" height="42" viewBox="0 0 50 42" fill="none" xmlns="http://www.w3.org/2000/svg">
<path d="M49.9928 12.9267C49.9 13.3551 49.8215 13.7763 49.7144 14.1975C48.5793 18.6952 44.8097 21.7008 40.1692 21.708C27.2186 21.7294 14.268 21.7151 1.31737 21.708C0.360705 21.708 -0.181879 21.0869 0.0751344 20.3087C0.21078 19.8732 0.524908 19.6376 0.960403 19.5733C1.16744 19.5448 1.38162 19.5519 1.5958 19.5519C14.3822 19.5519 27.1758 19.5591 39.9622 19.5519C43.2391 19.5519 45.6807 18.0741 47.1157 15.1113C49.3003 10.5922 46.2733 5.07351 41.2901 4.42384C36.7495 3.83128 32.8229 7.13675 32.6087 11.7059C32.5945 12.0557 32.4517 12.4484 32.2375 12.7197C31.9733 13.0552 31.5307 13.1123 31.1166 12.9338C30.6454 12.7268 30.4455 12.3484 30.4527 11.8415C30.4812 9.47129 31.2523 7.36521 32.8086 5.58754C37.3563 0.418713 45.2738 1.21117 48.7363 7.16531C49.3574 8.22906 49.7287 9.38562 49.9 10.6064C49.9143 10.7278 49.9643 10.8492 50 10.9705V12.9267H49.9928Z" fill="white"/>
<path d="M19.9366 26.0843C25.8907 26.0843 31.8448 26.0843 37.8061 26.0843C40.8046 26.0843 43.1463 27.3337 44.6313 29.9395C46.0734 32.4668 46.0448 35.0941 44.5384 37.5928C43.0249 40.1058 40.7189 41.3695 37.7704 41.2624C33.6796 41.1125 30.4812 37.8284 30.4527 33.8518C30.4527 33.245 30.724 32.8095 31.1952 32.6667C31.6949 32.5239 32.2304 32.7167 32.4445 33.1665C32.5516 33.3949 32.6016 33.6662 32.6087 33.9161C32.7158 36.1078 34.1151 38.0283 36.1641 38.7851C38.2202 39.5418 40.5476 38.9992 42.0111 37.3644C43.5461 35.6509 43.9102 33.6591 43.0106 31.5601C42.1111 29.4612 40.4262 28.2975 38.1274 28.2761C32.8729 28.2261 27.6184 28.2618 22.3568 28.2618C15.4103 28.2618 8.45663 28.2618 1.51013 28.2618C1.2674 28.2618 1.01752 28.2475 0.789065 28.1904C0.289317 28.0619 -0.0390893 27.5836 0.00374623 27.0981C0.0465818 26.5841 0.417823 26.1914 0.938989 26.12C1.14603 26.0915 1.36021 26.0915 1.57438 26.0915C7.69273 26.0915 13.8111 26.0915 19.9294 26.0915L19.9366 26.0843Z" fill="white"/>
<path d="M10.7126 15.1969C7.6356 15.1969 4.56572 15.1969 1.4887 15.1969C0.510623 15.1969 -0.00340378 14.8114 0.00373548 14.1046C0.0108747 13.3978 0.532041 13.0266 1.50298 13.0266C7.48568 13.0266 13.4755 13.0266 19.4582 13.0266C22.0926 13.0266 24.2415 11.3703 24.8269 8.85014C25.3195 6.7155 24.7056 4.86643 23.035 3.46C21.3644 2.04642 19.4225 1.76085 17.4164 2.6247C15.4174 3.48855 14.3251 5.08061 14.1323 7.27236C14.1109 7.54365 14.0752 7.82922 13.9753 8.0791C13.7825 8.54315 13.2685 8.75733 12.7545 8.63596C12.2618 8.52173 11.9549 8.08624 11.9477 7.50082C11.912 3.39574 15.5887 -0.145331 19.7224 0.00459387C24.213 0.175936 27.4685 3.80982 27.1401 8.29327C26.8759 11.9486 23.6561 15.0898 19.9865 15.1612C16.8952 15.2255 13.8039 15.1755 10.7126 15.1755V15.1969Z" fill="white"/>
</svg>
