<svg width="90" height="68" viewBox="0 0 90 68" fill="none" xmlns="http://www.w3.org/2000/svg">
<rect width="90" height="68" fill="#E5E5E5"/>
<g id="Desktop - 1" clip-path="url(#clip0_0_1)">
<rect width="1440" height="1391" transform="translate(-561 -685)" fill="#787474"/>
<rect id="Rectangle 15" x="-561" y="-685" width="1440" height="1391" fill="white"/>
<g id="Rectangle 19" filter="url(#filter0_d_0_1)">
<rect x="-58" y="-76" width="206" height="220" rx="12" fill="url(#paint0_linear_0_1)"/>
</g>
<g id="Group">
<g id="OBJECTS">
<g id="Group_2">
<g id="Group_3">
<path id="Vector" d="M84.5218 40.5923L79.009 40.9564L77.9688 46.3912L72.6553 44.8396L69.8295 49.5897L65.3655 46.3219L61.0835 49.8151L58.0063 45.221L52.7882 47.0326L51.4707 41.6585L45.9491 41.5805L46.5472 36.0849L41.3811 34.1173L43.8255 29.1592L39.6475 25.5446L43.6348 21.722L40.9477 16.9026L46.0011 14.6749L45.1257 9.2141L50.6385 8.85004L51.6787 3.42387L56.9835 4.96677L59.818 0.225368L64.2733 3.49321L68.564 0L71.6325 4.59405L76.8506 2.78243L78.1682 8.14793L83.6983 8.22595L83.0916 13.7215L88.2577 15.6891L85.8133 20.6472L90 24.2618L86.004 28.0844L88.6998 32.9125L83.6377 35.1401L84.5218 40.5923Z" fill="url(#paint1_linear_0_1)"/>
<path id="Vector_2" d="M64.8194 43.5481C75.1167 43.5481 83.4643 35.2005 83.4643 24.9032C83.4643 14.6059 75.1167 6.2583 64.8194 6.2583C54.5221 6.2583 46.1745 14.6059 46.1745 24.9032C46.1745 35.2005 54.5221 43.5481 64.8194 43.5481Z" fill="url(#paint2_radial_0_1)"/>
<g id="Group_4">
<path id="Vector_3" style="mix-blend-mode:overlay" d="M67.6625 22.9876C62.9124 19.1303 61.0575 13.2707 63.5192 9.88152C65.9809 6.49233 71.8318 6.87372 76.5819 10.7223C81.332 14.5796 83.1869 20.4392 80.7252 23.8284C78.2635 27.2175 72.4126 26.8362 67.6625 22.9876Z" fill="url(#paint3_radial_0_1)"/>
<path id="Vector_4" style="mix-blend-mode:overlay" opacity="0.4" d="M48.3415 29.0292C48.9743 26.9662 52.1641 27.8243 55.484 30.9361C58.8038 34.0566 60.9795 38.2519 60.3554 40.3149C59.7313 42.3779 56.5328 41.5198 53.2043 38.408C49.8844 35.2875 47.7087 31.0922 48.3328 29.0292H48.3415Z" fill="url(#paint4_radial_0_1)"/>
</g>
</g>
<g id="Group_5">
<path id="Vector_5" d="M63.2765 32.4531C62.4444 20.2745 52.3115 10.653 39.9249 10.653C27.5383 10.653 17.4054 20.2745 16.5732 32.4531C7.34181 32.9125 0 40.5403 0 49.8758C0 59.2112 7.80988 67.3158 17.4401 67.3158H62.3924C72.0226 67.3158 79.8324 59.5059 79.8324 49.8758C79.8324 40.2456 72.4906 32.9125 63.2679 32.4531H63.2765Z" fill="url(#paint5_radial_0_1)"/>
<path id="Vector_6" d="M63.2765 32.4531C62.4444 20.2745 52.3115 10.653 39.9249 10.653C27.5383 10.653 17.4054 20.2745 16.5732 32.4531C7.34181 32.9125 0 40.5403 0 49.8758C0 59.2112 7.80988 67.3158 17.4401 67.3158H62.3924C72.0226 67.3158 79.8324 59.5059 79.8324 49.8758C79.8324 40.2456 72.4906 32.9125 63.2679 32.4531H63.2765Z" fill="url(#paint6_radial_0_1)"/>
<path id="Vector_7" style="mix-blend-mode:overlay" d="M39.9249 34.6288C33.3545 29.2979 30.7888 21.1933 34.1953 16.5126C37.6018 11.8319 45.6891 12.352 52.2508 17.6828C58.8125 23.0136 61.3782 31.1269 57.9717 35.7989C54.5651 40.4797 46.4779 39.9509 39.9162 34.6288H39.9249Z" fill="url(#paint7_radial_0_1)"/>
<path id="Vector_8" style="mix-blend-mode:overlay" opacity="0.4" d="M63.3979 50.3698C58.2404 46.1832 56.2208 39.8035 58.8992 36.1283C61.5776 32.453 67.9312 32.8604 73.0887 37.0471C78.2462 41.2337 80.2572 47.6134 77.5874 51.2886C74.909 54.9725 68.5553 54.5565 63.3979 50.3698Z" fill="url(#paint8_radial_0_1)"/>
<path id="Vector_9" style="mix-blend-mode:overlay" opacity="0.2" d="M12.4733 50.9593C8.66802 45.0217 4.23866 42.1612 2.58307 44.5709C0.936148 46.9806 2.67842 53.7504 6.48368 59.6966C10.2976 65.6342 14.7183 68.4947 16.3739 66.0849C18.0208 63.6666 16.2785 56.9055 12.4733 50.9593Z" fill="url(#paint9_radial_0_1)"/>
</g>
</g>
</g>
</g>
</g>
<defs>
<filter id="filter0_d_0_1" x="-62" y="-76" width="214" height="228" filterUnits="userSpaceOnUse" color-interpolation-filters="sRGB">
<feFlood flood-opacity="0" result="BackgroundImageFix"/>
<feColorMatrix in="SourceAlpha" type="matrix" values="0 0 0 0 0 0 0 0 0 0 0 0 0 0 0 0 0 0 127 0" result="hardAlpha"/>
<feOffset dy="4"/>
<feGaussianBlur stdDeviation="2"/>
<feComposite in2="hardAlpha" operator="out"/>
<feColorMatrix type="matrix" values="0 0 0 0 0 0 0 0 0 0 0 0 0 0 0 0 0 0 0.25 0"/>
<feBlend mode="normal" in2="BackgroundImageFix" result="effect1_dropShadow_0_1"/>
<feBlend mode="normal" in="SourceGraphic" in2="effect1_dropShadow_0_1" result="shape"/>
</filter>
<linearGradient id="paint0_linear_0_1" x1="45" y1="-76" x2="45" y2="144" gradientUnits="userSpaceOnUse">
<stop stop-color="#00CAFD"/>
<stop offset="1" stop-color="#0070B7"/>
</linearGradient>
<linearGradient id="paint1_linear_0_1" x1="87.781" y1="-0.745447" x2="43.5308" y2="48.6969" gradientUnits="userSpaceOnUse">
<stop stop-color="#FFBA24"/>
<stop offset="1" stop-color="#FF5500"/>
</linearGradient>
<radialGradient id="paint2_radial_0_1" cx="0" cy="0" r="1" gradientUnits="userSpaceOnUse" gradientTransform="translate(69.0841 13.21) rotate(180) scale(35.4002 35.4002)">
<stop stop-color="#FFF4C3"/>
<stop offset="0.16" stop-color="#FFE036"/>
<stop offset="1" stop-color="#FA761C"/>
</radialGradient>
<radialGradient id="paint3_radial_0_1" cx="0" cy="0" r="1" gradientUnits="userSpaceOnUse" gradientTransform="translate(165.32 -113.835) rotate(126.03) scale(7.5983 11.0521)">
<stop stop-color="white"/>
<stop offset="0.1" stop-color="white" stop-opacity="0.85"/>
<stop offset="0.29" stop-color="white" stop-opacity="0.59"/>
<stop offset="0.47" stop-color="white" stop-opacity="0.38"/>
<stop offset="0.63" stop-color="white" stop-opacity="0.22"/>
<stop offset="0.78" stop-color="white" stop-opacity="0.1"/>
<stop offset="0.91" stop-color="white" stop-opacity="0.03"/>
<stop offset="1" stop-color="white" stop-opacity="0"/>
</radialGradient>
<radialGradient id="paint4_radial_0_1" cx="0" cy="0" r="1" gradientUnits="userSpaceOnUse" gradientTransform="translate(785.717 733.213) rotate(-136.79) scale(8.26166 3.4894)">
<stop stop-color="white"/>
<stop offset="0.1" stop-color="white" stop-opacity="0.85"/>
<stop offset="0.29" stop-color="white" stop-opacity="0.59"/>
<stop offset="0.47" stop-color="white" stop-opacity="0.38"/>
<stop offset="0.63" stop-color="white" stop-opacity="0.22"/>
<stop offset="0.78" stop-color="white" stop-opacity="0.1"/>
<stop offset="0.91" stop-color="white" stop-opacity="0.03"/>
<stop offset="1" stop-color="white" stop-opacity="0"/>
</radialGradient>
<radialGradient id="paint5_radial_0_1" cx="0" cy="0" r="1" gradientUnits="userSpaceOnUse" gradientTransform="translate(49.9885 22.6139) rotate(-180) scale(60.9015 44.4581)">
<stop stop-color="white"/>
<stop offset="0.2" stop-color="#D5F3FF"/>
<stop offset="1" stop-color="#85BCF1"/>
</radialGradient>
<radialGradient id="paint6_radial_0_1" cx="0" cy="0" r="1" gradientUnits="userSpaceOnUse" gradientTransform="translate(58.6218 27.703) scale(51.7741 51.774)">
<stop stop-color="#FFE036"/>
<stop offset="0.08" stop-color="#FECB30" stop-opacity="0.81"/>
<stop offset="0.18" stop-color="#FCB52B" stop-opacity="0.6"/>
<stop offset="0.28" stop-color="#FCA126" stop-opacity="0.41"/>
<stop offset="0.38" stop-color="#FB9122" stop-opacity="0.26"/>
<stop offset="0.48" stop-color="#FA851F" stop-opacity="0.15"/>
<stop offset="0.58" stop-color="#FA7C1D" stop-opacity="0.07"/>
<stop offset="0.68" stop-color="#FA771C" stop-opacity="0.02"/>
<stop offset="0.77" stop-color="#FA761C" stop-opacity="0"/>
</radialGradient>
<radialGradient id="paint7_radial_0_1" cx="0" cy="0" r="1" gradientUnits="userSpaceOnUse" gradientTransform="translate(138.775 -103.822) rotate(126.03) scale(10.5112 15.289)">
<stop stop-color="white"/>
<stop offset="0.1" stop-color="white" stop-opacity="0.85"/>
<stop offset="0.29" stop-color="white" stop-opacity="0.59"/>
<stop offset="0.47" stop-color="white" stop-opacity="0.38"/>
<stop offset="0.63" stop-color="white" stop-opacity="0.22"/>
<stop offset="0.78" stop-color="white" stop-opacity="0.1"/>
<stop offset="0.91" stop-color="white" stop-opacity="0.03"/>
<stop offset="1" stop-color="white" stop-opacity="0"/>
</radialGradient>
<radialGradient id="paint8_radial_0_1" cx="0" cy="0" r="1" gradientUnits="userSpaceOnUse" gradientTransform="translate(161.798 -87.475) rotate(126.03) scale(8.25524 12.0076)">
<stop stop-color="white"/>
<stop offset="0.1" stop-color="white" stop-opacity="0.85"/>
<stop offset="0.29" stop-color="white" stop-opacity="0.59"/>
<stop offset="0.47" stop-color="white" stop-opacity="0.38"/>
<stop offset="0.63" stop-color="white" stop-opacity="0.22"/>
<stop offset="0.78" stop-color="white" stop-opacity="0.1"/>
<stop offset="0.91" stop-color="white" stop-opacity="0.03"/>
<stop offset="1" stop-color="white" stop-opacity="0"/>
</radialGradient>
<radialGradient id="paint9_radial_0_1" cx="0" cy="0" r="1" gradientUnits="userSpaceOnUse" gradientTransform="translate(9.45999 55.2626) rotate(-25.71) scale(4.22132 12.284)">
<stop stop-color="white"/>
<stop offset="0.1" stop-color="white" stop-opacity="0.85"/>
<stop offset="0.29" stop-color="white" stop-opacity="0.59"/>
<stop offset="0.47" stop-color="white" stop-opacity="0.38"/>
<stop offset="0.63" stop-color="white" stop-opacity="0.22"/>
<stop offset="0.78" stop-color="white" stop-opacity="0.1"/>
<stop offset="0.91" stop-color="white" stop-opacity="0.03"/>
<stop offset="1" stop-color="white" stop-opacity="0"/>
</radialGradient>
<clipPath id="clip0_0_1">
<rect width="1440" height="1391" fill="white" transform="translate(-561 -685)"/>
</clipPath>
</defs>
</svg>
