<svg width="50" height="50" viewBox="0 0 50 50" fill="none" xmlns="http://www.w3.org/2000/svg">
<g clip-path="url(#clip0_220_95)">
<path d="M26.5618 0C27.4968 0.127551 28.4318 0.212585 29.3455 0.382653C37.2503 1.91327 43.1577 6.22874 47.0463 13.2866C49.1075 17.0068 50.0212 21.0459 49.9788 25.2764C49.8938 36.3308 42.2439 46.2372 31.5767 49.1071C17.6371 52.8912 3.52741 44.2389 0.531237 30.0808C0.318742 29.0816 0.233744 28.0612 0.0849979 27.0408C0.0637484 26.8707 0.0212495 26.7219 0 26.5731C0 25.5315 0 24.4898 0 23.4481C0.0637484 22.8316 0.127497 22.2364 0.233744 21.6199C1.01997 16.1777 3.31492 11.4796 7.13982 7.54677C10.901 3.69898 15.4271 1.29677 20.7395 0.382653C21.632 0.212585 22.5457 0.127551 23.4382 0C24.4794 0 25.5206 0 26.5618 0ZM1.76371 24.9787C1.76371 37.7976 12.1547 48.2568 24.9469 48.2568C37.7603 48.2568 48.215 37.8401 48.2363 25.0213C48.2363 12.2236 37.8241 1.78571 25.0106 1.76446C12.2184 1.7432 1.76371 12.1811 1.76371 24.9787Z" fill="white"/>
<path d="M15.6184 10.5442C13.9822 11.3946 11.3047 14.0731 10.5397 15.6463C11.3897 16.1565 12.2184 16.6667 13.0684 17.1769C13.4509 17.4107 13.6847 17.7083 13.5359 18.1973C13.3447 18.7925 12.7709 19.0264 12.2184 18.7075C11.3685 18.2185 10.5185 17.6871 9.62601 17.1556C8.49979 19.3452 7.88355 21.6412 7.75606 24.1284C8.79728 24.1284 9.79601 24.1284 10.816 24.1284C11.2622 24.1284 11.5597 24.3197 11.7085 24.7449C11.8785 25.2976 11.5172 25.8503 10.901 25.8716C9.54101 25.8929 8.20229 25.8929 6.84233 25.8716C6.26859 25.8716 5.9711 25.4677 5.9711 24.8087C6.03485 20.2594 7.50106 16.2202 10.4122 12.7551C13.4509 9.14116 17.3396 6.95153 21.9932 6.20748C32.1292 4.57058 41.7552 11.3095 43.6889 21.4286C43.9014 22.534 43.9439 23.682 44.0077 24.8299C44.0502 25.5952 43.7102 25.9141 42.9664 25.9141C41.7552 25.9141 40.5227 25.9141 39.3115 25.9141C38.6528 25.9141 38.2703 25.5527 38.2915 25C38.2915 24.4473 38.674 24.1497 39.3328 24.1497C40.3102 24.1497 41.2665 24.1497 42.2652 24.1497C42.1165 21.6837 41.5215 19.3878 40.3952 17.1769C39.6303 17.6233 38.9078 18.0697 38.164 18.5162C38.0153 18.6012 37.8878 18.6862 37.7391 18.7713C37.2716 19.0051 36.8253 18.8776 36.5491 18.4524C36.2941 18.0272 36.3791 17.5808 36.8466 17.2832C37.5691 16.8155 38.3128 16.3903 39.0565 15.9439C39.184 15.8588 39.3328 15.7738 39.5028 15.6675C38.1428 13.6054 36.4641 11.926 34.3604 10.5655C34.0204 11.1395 33.6804 11.6922 33.3617 12.2449C33.1704 12.5638 33.0004 12.9039 32.7879 13.2015C32.4904 13.6692 32.0442 13.7755 31.6192 13.5204C31.173 13.2653 31.0242 12.7764 31.3005 12.3087C31.7042 11.5859 32.1504 10.8844 32.5754 10.1616C32.6604 10.0128 32.7454 9.86394 32.8517 9.67262C30.663 8.54592 28.368 7.92942 25.9031 7.80187C25.9031 7.97194 25.8819 8.12075 25.8819 8.26956C25.8819 9.1199 25.8819 9.97024 25.8819 10.7993C25.8819 11.3946 25.5419 11.756 25.0106 11.7772C24.4581 11.7772 24.1182 11.4158 24.1182 10.7781C24.1182 9.80017 24.1182 8.82228 24.1182 7.80187C21.6532 7.90816 19.3583 8.54592 17.1483 9.67262C17.6583 10.523 18.1683 11.3308 18.6358 12.1599C18.7633 12.3937 18.8908 12.7551 18.8058 12.9677C18.6783 13.244 18.3808 13.4991 18.0833 13.6054C17.7221 13.7543 17.4246 13.5204 17.2333 13.2015C16.7871 12.4575 16.3408 11.7347 15.8946 10.9906C15.8096 10.8631 15.7246 10.7143 15.6396 10.5867L15.6184 10.5442Z" fill="white"/>
<path d="M29.1968 32.5255C29.1968 34.6939 27.9856 36.3095 26.2219 36.8197C24.3519 37.3724 22.4394 36.6709 21.4407 35.0978C20.4207 33.4821 20.5907 31.4413 21.8232 30.017C22.0145 29.8044 22.1845 29.5068 22.2482 29.2304C22.8857 26.4668 23.4807 23.682 24.0969 20.8971C24.2244 20.3019 24.5219 20.0255 24.9894 20.0255C25.4781 20.0255 25.7544 20.2806 25.9031 20.9184C26.5193 23.7032 27.1143 26.4668 27.7518 29.2517C27.8156 29.5068 27.9431 29.7619 28.1131 29.9532C28.8355 30.7823 29.1968 31.7602 29.1968 32.5255ZM27.4331 32.8869C27.4331 31.5476 26.3494 30.4209 25.0106 30.3997C23.7144 30.3997 22.5669 31.4838 22.5457 32.7806C22.5244 34.2049 23.5444 35.2466 24.9894 35.2466C26.3918 35.2466 27.4118 34.2475 27.4331 32.8869ZM25.7756 28.6352C25.5206 27.4872 25.2656 26.3818 25.0106 25.2764C24.9681 25.2764 24.9469 25.2764 24.9044 25.2764C24.6706 26.3818 24.4156 27.4872 24.1819 28.6352H25.7756Z" fill="white"/>
<path d="M24.8406 39.6471C27.7943 39.6471 30.748 39.6471 33.7229 39.6471C34.4666 39.6471 34.8704 40.1148 34.7216 40.7313C34.6366 41.0927 34.3816 41.3265 34.0204 41.369C33.8716 41.3903 33.7229 41.369 33.5741 41.369C27.773 41.369 21.9719 41.369 16.1708 41.369C16.0858 41.369 16.0008 41.369 15.9371 41.369C15.3209 41.3478 14.9384 41.0076 14.9596 40.4549C14.9596 39.9235 15.3209 39.6046 15.9371 39.6046C18.912 39.6046 21.8869 39.6046 24.8619 39.6046L24.8406 39.6471Z" fill="white"/>
<path d="M24.9044 43.9626C26.0518 43.9626 27.2206 43.9626 28.368 43.9626C29.0055 43.9626 29.3668 44.3027 29.3668 44.8342C29.3668 45.3656 28.9843 45.7058 28.368 45.7058C26.0518 45.7058 23.7144 45.7058 21.3982 45.7058C20.782 45.7058 20.3995 45.3444 20.4207 44.7917C20.4207 44.2602 20.8032 43.9413 21.3982 43.9413C22.5669 43.9413 23.7357 43.9413 24.9044 43.9413V43.9626Z" fill="white"/>
</g>
<defs>
<clipPath id="clip0_220_95">
<rect width="50" height="50" fill="white"/>
</clipPath>
</defs>
</svg>
