<svg width="51" height="54" viewBox="0 0 51 54" fill="none" xmlns="http://www.w3.org/2000/svg">
<path d="M17.1709 53.3262C16.2075 52.9068 15.2328 52.5215 14.2921 52.0568C8.39845 49.178 4.02355 44.8371 1.54142 38.6827C0.487359 36.0759 0 33.3331 0 30.511C0 27.0201 0 23.5293 0 20.0497C0 19.245 0.170009 19.007 0.906715 18.735C6.22233 16.7742 11.5493 14.8021 16.8649 12.83C17.3296 12.66 17.7603 12.66 18.225 12.83C20.3444 13.6234 22.4752 14.4054 24.6627 15.2101C25.4107 11.9573 27.2241 9.56584 30.2956 8.20577C32.2791 7.32172 34.3418 7.19705 36.4386 7.72974C40.5642 8.7838 43.511 12.5807 43.579 16.8309C43.647 21.3645 40.2695 25.8754 35.0785 26.4987C35.0785 27.7568 35.0785 29.0262 35.0785 30.2843C35.1012 32.3131 34.8972 34.3078 34.3192 36.2459C33.9792 37.3907 33.5598 38.5127 33.1291 39.6234C32.8798 40.2808 32.2677 40.5302 31.7124 40.2808C31.1683 40.0428 30.9417 39.4421 31.225 38.8301C32.5964 35.7812 33.0838 32.5737 33.0044 29.2529C32.9478 26.5101 32.9818 23.7673 33.0044 21.0245C33.0044 20.6278 32.8911 20.4464 32.5171 20.3104C27.6548 18.531 22.8152 16.7402 17.953 14.9721C17.7036 14.8815 17.3749 14.8815 17.1256 14.9721C12.252 16.7516 7.38973 18.5537 2.51613 20.3331C2.19878 20.4464 2.06278 20.5938 2.06278 20.9564C2.08545 24.164 2.05144 27.3828 2.07411 30.5903C2.13078 36.8353 4.68092 41.9582 9.19183 46.1518C11.5153 48.3166 14.2128 49.892 17.1709 51.0141C17.3863 51.0934 17.6809 51.0934 17.8963 51.0141C20.7864 49.9147 23.4159 48.3619 25.7167 46.2878C25.8414 46.1745 25.9774 46.0498 26.1134 45.9478C26.5894 45.5738 27.1901 45.5964 27.5641 46.0045C27.9722 46.4351 27.9608 47.0585 27.4848 47.4892C26.7594 48.1352 26.0227 48.7699 25.252 49.3593C23.2119 50.9121 20.9678 52.0908 18.5763 53.0088C18.3383 53.0995 18.1116 53.2242 17.885 53.3262H17.1596H17.1709ZM35.0785 24.3226C35.2146 24.3226 35.2826 24.3226 35.3392 24.3C39.1701 23.7333 41.9356 19.9364 41.4142 15.9922C40.9269 12.3653 37.98 9.69051 34.2738 9.50917C30.7717 9.3505 27.5415 11.8893 26.7708 15.3802C26.6801 15.8108 26.7708 16.0035 27.2128 16.1622C29.5363 16.9896 31.8597 17.8623 34.1718 18.7237C34.9199 18.9957 35.0785 19.2337 35.0785 20.0384C35.0785 20.8204 35.0785 21.6025 35.0785 22.3845C35.0785 23.0192 35.0785 23.6539 35.0785 24.3226Z" fill="white"/>
<path d="M34.3304 0C34.8971 0.260681 35.1125 0.702704 35.0898 1.3374C35.0558 2.30079 35.0898 3.27551 35.0898 4.25023C35.0898 4.99827 34.7044 5.42896 34.0811 5.44029C33.435 5.45163 33.027 4.99827 33.0157 4.25023C33.0157 3.33218 33.0383 2.41413 33.0043 1.49608C32.9817 0.850046 33.1517 0.351352 33.7184 0.0113339H34.3417L34.3304 0Z" fill="white"/>
<path d="M30.817 27.5074C30.715 29.4228 30.7603 31.3723 30.4996 33.265C29.8989 37.6286 27.7795 41.2215 24.6286 44.225C22.7699 45.9931 20.6278 47.3531 18.2816 48.4072C17.7829 48.6339 17.3409 48.6339 16.8422 48.4072C11.5833 46.0044 7.63907 42.3095 5.50829 36.8352C4.72624 34.8065 4.36356 32.6983 4.37489 30.5222C4.37489 28.0628 4.37489 25.592 4.37489 23.1325C4.37489 22.3051 4.5449 22.0558 5.30427 21.7724C9.20315 20.333 13.0907 18.8936 16.9896 17.4882C17.3182 17.3749 17.7603 17.3635 18.089 17.4882C22.0218 18.9049 25.9547 20.367 29.8763 21.8064C30.545 22.0558 30.7263 22.3391 30.7263 23.0645C30.7263 24.5379 30.7263 26.0113 30.7263 27.4847C30.7603 27.4847 30.783 27.4847 30.817 27.4847V27.5074ZM28.7655 27.9494H28.6409C28.6409 26.6687 28.6295 25.4106 28.6409 24.1412C28.6409 23.7445 28.5502 23.5405 28.1422 23.3932C24.7306 22.1578 21.3305 20.8884 17.9189 19.6416C17.7036 19.5623 17.4089 19.5623 17.1822 19.6416C13.7367 20.8997 10.3025 22.1691 6.85702 23.4272C6.51701 23.5519 6.415 23.7105 6.42633 24.0619C6.43767 26.2493 6.381 28.4368 6.46034 30.6242C6.50567 31.9276 6.61901 33.2764 6.95903 34.5344C8.47778 40.1334 12.1613 43.8736 17.2842 46.3331C17.4429 46.4011 17.6923 46.3897 17.8509 46.3104C18.7123 45.8684 19.585 45.4377 20.3897 44.905C24.5153 42.1962 27.3828 38.5353 28.3122 33.6164C28.6635 31.7803 28.6182 29.8535 28.7542 27.9721L28.7655 27.9494Z" fill="white"/>
<path d="M48.2712 15.9355C48.8039 15.9355 49.348 15.9355 49.8807 15.9355C50.5607 15.9469 50.9801 16.3662 50.9801 16.9783C50.9801 17.5676 50.5494 17.9983 49.9147 18.0097C48.8266 18.021 47.7386 18.021 46.6505 18.0097C46.0158 18.0097 45.5738 17.5676 45.5624 16.9896C45.5624 16.3889 46.0045 15.9582 46.6618 15.9355C46.6958 15.9355 46.7298 15.9355 46.7638 15.9355C47.2625 15.9355 47.7612 15.9355 48.2712 15.9355Z" fill="white"/>
<path d="M22.7473 4.54486C23.0987 4.73754 23.3707 4.82821 23.5634 5.00955C24.3454 5.76893 25.1161 6.53963 25.8755 7.32168C26.3402 7.7977 26.3288 8.42107 25.8982 8.84043C25.4788 9.24845 24.8781 9.23711 24.4134 8.77242C23.6314 8.01305 22.872 7.231 22.1013 6.4603C21.7726 6.12028 21.6253 5.68959 21.8859 5.28157C22.0786 4.98688 22.4413 4.79421 22.7473 4.54486Z" fill="white"/>
<path d="M41.7883 25.7734C41.9923 25.5014 42.1623 25.1614 42.4456 24.9574C42.797 24.6967 43.239 24.7534 43.545 25.0481C44.4177 25.8868 45.2791 26.7368 46.1065 27.6209C46.4579 28.0062 46.3672 28.6296 46.0045 28.9809C45.6191 29.3436 45.0298 29.4003 44.6444 29.0263C43.783 28.1989 42.9443 27.3489 42.117 26.4875C41.9696 26.3401 41.9356 26.0908 41.7883 25.7734Z" fill="white"/>
<path d="M41.8223 8.0244C41.9697 7.77506 42.0717 7.50304 42.2643 7.29903C42.9897 6.53966 43.7378 5.79162 44.4971 5.05491C44.9845 4.57889 45.5852 4.54488 46.0159 4.96424C46.4579 5.3836 46.4466 6.02963 45.9592 6.52832C45.2112 7.29903 44.4518 8.04707 43.6924 8.80645C43.3524 9.13513 42.9444 9.23713 42.5024 9.03312C42.1057 8.85178 41.9017 8.5231 41.8337 8.03574L41.8223 8.0244Z" fill="white"/>
<path d="M30.9304 43.2389C30.9191 43.8056 30.4544 44.259 29.8991 44.259C29.3437 44.259 28.879 43.783 28.8903 43.2163C28.8903 42.6269 29.3664 42.1622 29.9557 42.1849C30.5224 42.2075 30.9531 42.6722 30.9418 43.2389H30.9304Z" fill="white"/>
<path d="M15.9582 34.7272C16.1168 34.5799 16.2528 34.4552 16.3775 34.3192C18.4856 32.2111 20.5824 30.103 22.6905 27.9949C22.8379 27.8475 22.9852 27.7002 23.1552 27.5755C23.5632 27.2922 24.0846 27.3375 24.4473 27.6775C24.81 28.0289 24.878 28.5729 24.5833 29.0036C24.4813 29.1623 24.3339 29.2983 24.2093 29.4343C21.7838 31.8597 19.3697 34.2852 16.9442 36.722C16.2075 37.4587 15.7088 37.4587 14.9721 36.7107C13.9181 35.6566 12.8753 34.6026 11.8099 33.5485C11.4586 33.1971 11.3226 32.7891 11.5039 32.3244C11.7646 31.6217 12.6373 31.4631 13.2153 32.0184C13.9974 32.7778 14.7568 33.5598 15.5388 34.3305C15.6748 34.4666 15.8108 34.5912 15.9695 34.7386L15.9582 34.7272Z" fill="white"/>
</svg>
