<svg width="73" height="72" viewBox="0 0 73 72" fill="none" xmlns="http://www.w3.org/2000/svg">
<path d="M65.0638 58.686L57.0703 59.2091L55.5632 67.0548L47.8654 64.82L43.7542 71.6767L37.2965 66.9502L31.0772 72L26.6226 65.362L19.0584 67.9773L17.1507 60.2171L9.13812 60.103L10.0061 52.1622L2.51823 49.3187L6.06664 42.1482L0 36.9272L5.79002 31.4019L1.87913 24.4216L9.21443 21.2072L7.93623 13.3235L15.9392 12.8004L17.4464 4.94519L25.1346 7.18003L29.2458 0.323339L35.7131 5.04029L41.9228 0L46.3774 6.63796L53.9416 4.01321L55.8493 11.7829L63.8619 11.897L62.9939 19.8378L70.4818 22.6813L66.9429 29.8423L73 35.0728L67.2195 40.5981L71.1209 47.5784L63.7856 50.7928L65.0638 58.686Z" fill="url(#paint0_linear_240_94)"/>
<path d="M9.46243 35.9953C9.46243 50.8784 21.5671 62.956 36.4952 62.956C51.4234 62.956 63.528 50.8879 63.528 35.9953C63.528 21.1026 51.4234 9.04401 36.4952 9.04401C21.5671 9.04401 9.46243 21.1122 9.46243 35.9953Z" fill="url(#paint1_radial_240_94)"/>
<path style="mix-blend-mode:overlay" d="M40.6255 33.2278C33.7385 27.655 31.0486 19.1816 34.6161 14.2839C38.1836 9.38631 46.6635 9.93789 53.5505 15.5107C60.4375 21.0836 63.1179 29.5665 59.5504 34.4546C55.9733 39.3522 47.5029 38.8007 40.616 33.2373L40.6255 33.2278Z" fill="url(#paint2_radial_240_94)"/>
<path style="mix-blend-mode:overlay" opacity="0.4" d="M12.6007 41.9579C13.5164 38.9813 18.1522 40.2081 22.9598 44.7158C27.7673 49.2236 30.9341 55.2909 30.0184 58.2771C29.1122 61.2537 24.4669 60.0269 19.6593 55.5192C14.8518 51.0114 11.685 44.9441 12.6007 41.9579Z" fill="url(#paint3_radial_240_94)"/>
<defs>
<linearGradient id="paint0_linear_240_94" x1="69.7854" y1="-1.08414" x2="5.84303" y2="70.5848" gradientUnits="userSpaceOnUse">
<stop stop-color="#FFBA24"/>
<stop offset="1" stop-color="#FF5500"/>
</linearGradient>
<radialGradient id="paint1_radial_240_94" cx="0" cy="0" r="1" gradientUnits="userSpaceOnUse" gradientTransform="translate(42.6859 19.096) rotate(-180) scale(51.328 51.1732)">
<stop stop-color="#FFF4C3"/>
<stop offset="0.16" stop-color="#FFE036"/>
<stop offset="1" stop-color="#FA761C"/>
</radialGradient>
<radialGradient id="paint2_radial_240_94" cx="0" cy="0" r="1" gradientUnits="userSpaceOnUse" gradientTransform="translate(138.938 -103.943) rotate(126.112) scale(10.9997 16.0144)">
<stop stop-color="white"/>
<stop offset="0.1" stop-color="white" stop-opacity="0.85"/>
<stop offset="0.29" stop-color="white" stop-opacity="0.59"/>
<stop offset="0.47" stop-color="white" stop-opacity="0.38"/>
<stop offset="0.63" stop-color="white" stop-opacity="0.22"/>
<stop offset="0.78" stop-color="white" stop-opacity="0.1"/>
<stop offset="0.91" stop-color="white" stop-opacity="0.03"/>
<stop offset="1" stop-color="white" stop-opacity="0"/>
</radialGradient>
<radialGradient id="paint3_radial_240_94" cx="0" cy="0" r="1" gradientUnits="userSpaceOnUse" gradientTransform="translate(721.34 716.705) rotate(-136.876) scale(11.9465 5.04475)">
<stop stop-color="white"/>
<stop offset="0.1" stop-color="white" stop-opacity="0.85"/>
<stop offset="0.29" stop-color="white" stop-opacity="0.59"/>
<stop offset="0.47" stop-color="white" stop-opacity="0.38"/>
<stop offset="0.63" stop-color="white" stop-opacity="0.22"/>
<stop offset="0.78" stop-color="white" stop-opacity="0.1"/>
<stop offset="0.91" stop-color="white" stop-opacity="0.03"/>
<stop offset="1" stop-color="white" stop-opacity="0"/>
</radialGradient>
</defs>
</svg>
