<svg width="22" height="23" viewBox="0 0 22 23" fill="none" xmlns="http://www.w3.org/2000/svg">
<path d="M17.3893 12.1363C16.8655 15.6203 14.8836 17.6056 11.4063 18.1327C11.4063 18.3135 11.4063 18.5213 11.4063 18.7292C11.4046 19.0063 11.2374 19.1904 10.9958 19.1887C10.7609 19.1854 10.5987 19.0046 10.5953 18.7359C10.5936 18.5281 10.5953 18.3186 10.5953 18.1327C7.11977 17.6106 5.13785 15.627 4.61069 12.1346C4.43328 12.1346 4.22714 12.1346 4.01932 12.1346C3.74053 12.1329 3.55637 11.969 3.55806 11.7257C3.55806 11.4841 3.74222 11.3236 4.0227 11.3202C4.21363 11.3202 4.40624 11.3202 4.59717 11.3185C4.60731 11.3185 4.61914 11.3134 4.61069 11.3151C5.12771 7.83957 7.10625 5.85258 10.5936 5.32204C10.5936 5.14632 10.5936 4.94019 10.5936 4.73405C10.5953 4.45358 10.7558 4.26941 10.9958 4.26772C11.2374 4.26603 11.4013 4.4502 11.4046 4.72898C11.4063 4.93174 11.4046 5.13449 11.4046 5.32373C14.8819 5.84244 16.8672 7.83112 17.3893 11.3219C17.5717 11.3219 17.7796 11.3219 17.9874 11.3219C18.2543 11.3253 18.4368 11.4858 18.4402 11.7206C18.4453 11.9622 18.2594 12.1312 17.984 12.1346C17.7762 12.1363 17.5684 12.1346 17.3859 12.1346L17.3893 12.1363ZM11.4131 17.2541C14.0438 17.1477 16.3907 14.8532 16.514 12.1532C16.166 12.0991 16.0088 11.9774 16.0122 11.7443C16.0122 11.6598 16.0359 11.5432 16.0933 11.4976C16.2116 11.4013 16.362 11.3421 16.514 11.2577C16.3501 8.34477 13.7262 6.24119 11.4131 6.21585C11.3827 6.53688 11.2509 6.70077 11.0126 6.70922C10.771 6.71935 10.6443 6.57067 10.5717 6.19895C7.78548 6.35102 5.58222 8.76041 5.48422 11.3084C5.83059 11.3574 5.98942 11.479 5.98435 11.7189C5.98435 11.8034 5.959 11.92 5.90156 11.9656C5.78159 12.0619 5.63291 12.1194 5.47915 12.2039C5.65825 15.1235 8.22985 17.1967 10.5784 17.2507C10.6207 16.9094 10.7643 16.7439 11.0093 16.7523C11.2492 16.7591 11.3861 16.928 11.4097 17.2575L11.4131 17.2541Z" fill="#01A8E4"/>
<path d="M18.3135 1H3.68649C2.20278 1 1 2.20278 1 3.68649V19.7716C1 21.2554 2.20278 22.4581 3.68649 22.4581H18.3135C19.7972 22.4581 21 21.2554 21 19.7716V3.68649C21 2.20278 19.7972 1 18.3135 1Z" stroke="#01A8E4" stroke-miterlimit="10"/>
</svg>
