<svg width="20" height="20" viewBox="0 0 20 20" fill="none" xmlns="http://www.w3.org/2000/svg">
<path d="M12.6774 13.4338C9.22675 16.3593 4.30861 15.6748 1.72529 12.482C-0.773633 9.39705 -0.529836 4.95244 2.27383 2.20503C5.11032 -0.570512 9.55025 -0.743984 12.5649 1.78776C15.7061 4.42733 16.3109 9.23764 13.4229 12.6836C13.5073 12.7399 13.6151 12.7868 13.6901 12.8618C15.6968 14.8591 17.6987 16.861 19.696 18.8676C19.8319 19.0036 19.9398 19.1911 19.9867 19.374C20.0429 19.6084 19.9163 19.8053 19.7007 19.9225C19.4897 20.0351 19.274 20.0304 19.0771 19.885C18.988 19.8194 18.913 19.7397 18.8333 19.6647C16.8454 17.6768 14.8528 15.6889 12.865 13.6963C12.7899 13.6166 12.7337 13.5182 12.6727 13.4338H12.6774ZM14.1261 7.67172C14.1543 4.14134 11.2662 1.21108 7.72646 1.17827C4.14451 1.14545 1.20488 4.01007 1.17675 7.56857C1.14393 11.1693 4.02261 14.0948 7.62331 14.123C11.1678 14.1511 14.098 11.2443 14.1261 7.67172Z" fill="#00C0F5"/>
</svg>
